<?xml version="1.0" standalone="no"?>
<!DOCTYPE svg PUBLIC "-//W3C//DTD SVG 20010904//EN"
 "http://www.w3.org/TR/2001/REC-SVG-20010904/DTD/svg10.dtd">
<svg version="1.0" xmlns="http://www.w3.org/2000/svg"
 width="260.000000pt" height="260.000000pt" viewBox="0 0 260.000000 260.000000"
 preserveAspectRatio="xMidYMid meet">
<metadata>
Created by potrace 1.11, written by Peter Selinger 2001-2013
</metadata>
<g transform="translate(0.000000,260.000000) scale(0.100000,-0.100000)"
fill="#000000" stroke="none">
<path d="M1960 2443 c-117 -20 -332 -119 -520 -241 -97 -62 -283 -194 -300
-212 -5 -5 -90 -74 -125 -100 -10 -8 -87 -82 -170 -165 -328 -324 -505 -607
-581 -925 -15 -60 -13 -236 2 -295 49 -189 187 -321 376 -360 82 -17 209 -17
294 2 38 8 78 16 89 19 99 20 317 120 477 217 245 149 624 471 677 574 19 39
34 126 23 137 -2 3 -30 -16 -61 -43 -342 -293 -807 -569 -1046 -621 -116 -26
-239 -16 -300 24 -101 66 -145 211 -115 376 26 144 110 335 216 495 93 140
357 432 529 585 192 171 389 290 536 325 80 18 84 18 103 -1 41 -41 -3 -151
-124 -309 -62 -82 -212 -242 -284 -305 l-29 -25 6 24 c3 14 1 31 -5 38 -25 30
-42 19 -255 -167 -201 -176 -247 -232 -256 -314 -5 -46 23 -106 62 -129 59
-35 186 -9 303 63 27 17 51 30 54 30 2 0 40 26 83 58 262 192 517 476 630 699
62 123 75 171 76 268 0 78 -4 97 -28 146 -29 61 -73 98 -142 122 -39 14 -144
19 -195 10z"/>
</g>
</svg>
