<?xml version="1.0" encoding="utf-8"?>
<!-- Generator: Adobe Illustrator 21.0.2, SVG Export Plug-In . SVG Version: 6.00 Build 0)  -->
<svg version="1.1" id="Capa_1" xmlns="http://www.w3.org/2000/svg" xmlns:xlink="http://www.w3.org/1999/xlink" x="0px" y="0px"
	 viewBox="0 0 579.2 579.2" style="enable-background:new 0 0 579.2 579.2;" xml:space="preserve">
<g>
	<g>
		<path d="M570,353.8h9.2v-9.2V237.6v-9.2H570h-72.9c-4.3-14.7-10.1-28.9-17.4-42.3l51.5-51.5l6.5-6.5l-6.5-6.5l-75.7-75.7l-6.5-6.5
			l-6.5,6.5l-51.6,51.6c-12.8-6.8-26.2-12.4-40-16.6V9.2V0h-9.2H234.5h-9.2v9.2V81c-13.1,4-25.8,9.1-38,15.5l-50.6-50.6l-6.5-6.5
			l-6.5,6.5L48,121.6l-6.5,6.5l6.5,6.5l49.5,49.5c-7.3,13.2-13.2,27-17.6,41.3H9.2H0v9.2v107.1v9.2h9.2H79
			c4.5,15.4,10.7,30.2,18.5,44.3L48,444.6l-6.5,6.5l6.5,6.5l75.7,75.7l6.5,6.5l6.5-6.5l50.6-50.6c13.1,6.8,26.8,12.3,41.1,16.4V570
			v9.2h9.2h107.1h9.2V570v-72.7c12.7-4,25.1-9.3,36.9-15.6l51.6,51.6l6.5,6.5l6.5-6.5l75.7-75.7l6.5-6.5l-6.5-6.5l-51.5-51.5
			c6.8-12.6,12.4-25.7,16.5-39.3L570,353.8L570,353.8L570,353.8z M418.1,289.6c0,71.7-58.3,130.1-130.1,130.1s-130-58.3-130-130.1
			s58.3-130.1,130-130.1S418.1,217.9,418.1,289.6z"/>
	</g>
</g>
</svg>
